<svg width="40" height="41" viewBox="0 0 40 41" fill="none" xmlns="http://www.w3.org/2000/svg">
<path d="M40 20.128C40 13.6119 34.7097 8.25708 28.129 8.25708C25.2903 8.25708 22.7097 9.22482 20.6452 10.9022C22.1935 12.3861 23.4194 14.2571 24 16.3861H23.0323C22.3871 14.5151 21.3548 12.8377 19.9355 11.4829C18.5161 12.8377 17.4839 14.5151 16.8387 16.3861H15.871C16.5161 14.2571 17.6774 12.3861 19.2258 10.9022C17.1613 9.22482 14.6452 8.25708 11.8065 8.25708C5.29032 8.25708 0 13.6119 0 20.128C0 26.6442 5.29032 31.999 11.871 31.999C14.7097 31.999 17.2903 30.9668 19.2903 29.3539C17.7419 27.87 16.5806 25.999 15.9355 23.87H16.9032C17.5484 25.741 18.5806 27.4184 20 28.7732C21.4194 27.4184 22.5161 25.741 23.0968 23.87H24.0645C23.4194 25.999 22.2581 27.87 20.7097 29.3539C22.7742 31.0313 25.3548 31.999 28.1935 31.999C34.7097 31.999 40 26.6442 40 20.128Z" fill="#858FA4"/>
<path d="M31.29 22.9022L32.1287 18.5151H33.161L33.29 18.9667C33.4836 18.7732 33.8062 18.5151 34.4513 18.5151L34.1287 19.6764C33.8062 19.6764 33.29 19.6119 32.9029 20.9022L32.5158 22.9022H31.29Z" fill="#1A1A25"/>
<path d="M15.4839 17.4182H16.6452L16.3871 18.5795H17.0323L16.8387 19.4827H16.2581L15.9355 21.2247C15.871 21.5472 15.9355 21.8698 16.5807 21.7408L16.4516 22.7085C16.1936 22.9021 15.871 22.9021 15.5484 22.9021C15.2903 22.9021 14.3871 22.7085 14.5807 21.5472L15.4839 17.4182Z" fill="#1A1A25"/>
<path d="M20.6457 20.9667C20.7747 20.2571 21.0973 18.5151 19.0328 18.5151C17.0973 18.5151 16.8392 20.4506 16.8392 20.7087C16.7747 20.9667 16.7747 22.9022 18.8392 22.9022C19.3553 22.9022 20.065 22.8377 20.3876 22.7087L20.5811 21.8055C20.3876 21.87 19.7424 21.9345 19.2263 21.9345C18.7747 21.9345 18.0005 21.9345 18.1295 20.9667H20.6457Z" fill="#1A1A25"/>
<path d="M14.3225 19.5472L14.5806 18.644C13.9999 18.4504 13.5483 18.4504 13.4193 18.4504C13.2257 18.4504 11.8064 18.4504 11.6128 19.4827C11.4193 20.3214 11.7418 20.644 11.9999 20.773C12.4515 20.9666 12.7096 21.1601 12.9676 21.2891C13.2902 21.4182 13.2257 21.9343 12.8386 21.9343C12.6451 21.9343 11.8709 21.9988 11.2902 21.8053L11.0967 22.7085C11.6773 22.8375 12.0644 22.8375 12.516 22.8375C12.8386 22.8375 14.258 22.9021 14.4515 21.6117C14.5806 20.9666 14.258 20.7085 14.0644 20.515C13.8064 20.3859 13.4838 20.1279 13.2257 20.0633C12.9676 19.9343 12.7741 19.5472 13.2257 19.4182C13.4193 19.4827 13.9999 19.4827 14.3225 19.5472Z" fill="#1A1A25"/>
<path d="M6.58061 22.9022L7.61287 17.6118H5.61287L4.19352 20.8376L3.93545 17.6118H2.06448L1.03223 22.9022H2.19352L2.96771 19.0957L3.29029 22.9022H4.38707L6.06448 19.1602L5.35481 22.9022H6.58061Z" fill="#1A1A25"/>
<path d="M7.93591 18.644L7.74236 19.6117C8.06494 19.6117 8.83913 19.4827 9.22623 19.4827C9.61332 19.4827 10.1295 19.4182 9.9359 20.0634C9.61332 20.0634 7.48429 19.7408 7.16171 21.6118C7.03268 22.515 7.80687 22.9666 8.38752 22.9666C8.96816 22.9666 9.16171 22.8376 9.35526 22.7085L9.48429 22.9666H10.5811L11.0327 20.5795C11.1617 19.9988 11.3553 18.5795 9.35526 18.5795C9.0972 18.515 8.7101 18.515 7.93591 18.644Z" fill="#1A1A25"/>
<path d="M27.226 18.8376C26.9035 18.6441 26.7099 18.6441 26.3228 18.6441C25.9357 18.6441 25.0325 19.0312 24.9035 20.0634C24.7099 21.3537 25.5486 21.9344 26.7744 21.5473L27.097 22.6441C26.7099 22.8376 26.3228 22.9021 25.6777 22.9021C24.4519 22.9021 23.097 21.8054 23.6777 19.5473C24.1293 17.9344 25.5486 17.2892 26.3873 17.3537C27.3551 17.4183 27.7422 17.7408 28.0002 18.0634L27.226 18.8376Z" fill="#1A1A25"/>
<path d="M37.3547 19.0312C37.0966 18.8376 36.9676 18.515 36.4515 18.515C35.8063 18.515 34.774 18.386 34.1934 20.386C33.8063 21.7409 34.5805 22.9021 35.4192 22.9021C35.8063 22.9021 36.1934 22.7086 36.4515 22.5796L36.5805 22.9021H37.8708L38.9031 17.3538H37.6773L37.3547 19.0312Z" fill="#1A1A25"/>
<path d="M28.0648 18.644L27.8713 19.6117C28.1938 19.6117 28.968 19.4827 29.3551 19.4827C29.7422 19.4827 30.1938 19.4182 30.0648 20.0634C29.7422 20.0634 27.6132 19.7408 27.2906 21.6118C27.1616 22.515 27.9358 22.9666 28.5164 22.9666C29.0971 22.9666 29.2906 22.8376 29.4842 22.7085L29.6132 22.9666H30.71L31.1616 20.5795C31.2906 19.9988 31.4842 18.5795 29.4842 18.5795C29.2906 18.515 28.839 18.515 28.0648 18.644Z" fill="#1A1A25"/>
<path d="M18.1299 20.128H19.6137C19.6783 19.6763 19.5492 19.3538 19.0976 19.3538C18.5815 19.3538 18.2589 19.6118 18.1299 20.128Z" fill="#858FA4"/>
<path d="M9.74253 20.9666C9.54899 20.9666 9.09737 20.8376 8.71028 21.0956C8.32318 21.3537 8.19415 21.8053 8.64576 21.9343C9.03286 22.0633 9.54899 21.8053 9.67802 21.4182L9.74253 20.9666Z" fill="#858FA4"/>
<path d="M36.968 20.8376C37.0971 20.4505 37.0325 19.9344 36.9035 19.7408C36.5164 19.2247 35.6777 19.6118 35.4196 20.5795C35.2261 21.2247 35.6132 21.6763 36.0003 21.6763C36.4519 21.6763 36.71 21.3537 36.968 20.8376Z" fill="#858FA4"/>
<path d="M29.9359 20.9666C29.7423 20.9666 29.2907 20.8376 28.9036 21.0956C28.5165 21.3537 28.3875 21.8053 28.8391 21.9343C29.2262 22.0633 29.8068 21.8053 29.8714 21.4182L29.9359 20.9666Z" fill="#858FA4"/>
<path d="M20.6455 22.9022L21.4842 18.5796H22.5165L22.6455 19.0312C22.8391 18.8377 23.1616 18.5796 23.8068 18.5796L23.4842 19.7409C23.2262 19.7409 22.6455 19.6764 22.2584 20.9667L21.8713 22.9667H20.6455" fill="#1A1A25"/>
<path d="M11.8713 8.25708C6.64551 8.25708 2.1939 11.6764 0.645508 16.3861H16.0003C16.6455 14.2571 17.8068 12.3861 19.3552 10.9022C17.2262 9.28934 14.6455 8.25708 11.8713 8.25708Z" fill="#858FA4"/>
<path d="M20.0001 11.5474C18.5807 12.9022 17.5485 14.5151 16.9033 16.4506H23.0969C22.4517 14.5796 21.4195 12.9022 20.0001 11.5474Z" fill="#858FA4"/>
<path d="M28.1294 8.25708C25.2907 8.25708 22.71 9.22482 20.6455 10.9022C22.1939 12.3861 23.3552 14.2571 24.0003 16.3861H39.3552C37.8713 11.6764 33.4197 8.25708 28.1294 8.25708Z" fill="#858FA4"/>
</svg>
