<svg width="55" height="21" viewBox="0 0 55 21" fill="none" xmlns="http://www.w3.org/2000/svg">
<path d="M10.5428 4.17117C10.3503 3.78492 10.0457 3.46635 9.66761 3.22713C9.27319 2.98558 8.80759 2.81637 8.27547 2.71602C7.73402 2.618 7.10855 2.57365 6.38389 2.56665L3.03831 2.56899C2.69057 2.57365 2.34983 2.84438 2.26814 3.18045L0.017144 12.985C-0.0645408 13.3164 0.153674 13.5941 0.501418 13.5941H2.10361C2.45135 13.5941 2.79559 13.3245 2.87261 12.985L3.42223 10.6044C3.49575 10.273 3.83882 9.99646 4.19007 9.99646H4.64867C6.60794 9.99413 8.12494 9.59387 9.21485 8.7922C10.3106 7.98935 10.8509 6.92862 10.8509 5.61466C10.8497 5.03936 10.7552 4.55626 10.5428 4.17117ZM7.08754 7.37438C6.60327 7.72913 5.92995 7.9065 5.06176 7.9065H4.66967C4.32076 7.9065 4.10722 7.63111 4.18307 7.29503L4.66501 5.21324C4.73269 4.8795 5.08393 4.60293 5.42818 4.60527L5.95329 4.60177C6.56593 4.60177 7.03386 4.70796 7.3466 4.91334C7.65584 5.11638 7.81104 5.43962 7.8087 5.86788C7.81804 6.51903 7.56948 7.01964 7.08754 7.37438Z" fill="#858FA4"/>
<path d="M18.2692 5.57288C17.6648 5.23214 16.7102 5.06177 15.4056 5.06177C14.7603 5.06177 14.1173 5.11195 13.4674 5.2123C12.9877 5.28582 12.9411 5.29982 12.6458 5.364C12.0367 5.49703 11.941 6.105 11.941 6.105L11.745 6.91134C11.6341 7.42596 11.9305 7.40612 12.0542 7.36294C12.3203 7.28359 12.4685 7.20191 13.0123 7.08055C13.5315 6.96269 14.0788 6.874 14.5129 6.87984C15.1536 6.87984 15.6437 6.94752 15.9704 7.08522C16.2925 7.22525 16.4535 7.46563 16.4535 7.81338L16.4255 8.03976L16.1945 8.18213C15.2854 8.23931 14.6284 8.32332 13.8314 8.43885C13.0519 8.54737 12.3681 8.73758 11.7998 8.99781C11.1895 9.2662 10.7368 9.62678 10.4205 10.0854C10.1148 10.5463 9.96191 11.1053 9.96191 11.7611C9.96191 12.3784 10.1836 12.8883 10.6142 13.2828C11.0472 13.6702 11.6189 13.8592 12.3028 13.8592C12.7357 13.8569 13.0706 13.823 13.3087 13.7659L14.0847 13.4986L14.7416 13.1346L15.3461 12.7355L15.3543 12.7471L15.2936 13.0039L15.2901 13.0144V13.0167C15.2247 13.3294 15.4138 13.5862 15.7184 13.6165L15.7242 13.6235H15.7522H16.981H17.212L17.233 13.6142C17.5528 13.5768 17.8527 13.3201 17.9227 13.0144L19.0908 7.95808L19.1514 7.54615L19.1795 7.1599C19.1841 6.44341 18.8749 5.91246 18.2692 5.57288ZM15.6857 11.2581L15.436 11.5872L14.8058 11.9128C14.5094 12.033 14.2282 12.0937 13.968 12.0937C13.5735 12.0937 13.2643 12.0365 13.0554 11.9198L12.7462 11.3188C12.7462 10.9932 12.8209 10.7354 12.9807 10.537L13.6599 10.0749C13.9505 9.97686 14.3052 9.894 14.716 9.83682C15.0824 9.79131 15.8059 9.70846 15.9004 9.70613L16.0112 9.90101C15.9891 10.0119 15.7837 10.8707 15.6857 11.2581Z" fill="#858FA4"/>
<path d="M47.3698 5.57966C46.7619 5.23892 45.8085 5.06738 44.5074 5.06738C43.8621 5.06738 43.2179 5.11756 42.5703 5.22142C42.0895 5.29143 42.0417 5.3066 41.7453 5.36962C41.1373 5.50148 41.0428 6.11178 41.0428 6.11178L40.8467 6.91696C40.737 7.43157 41.0264 7.40823 41.1618 7.36856C41.429 7.28921 41.5726 7.21102 42.1117 7.085C42.6286 6.9683 43.1806 6.88195 43.6158 6.88429C44.2541 6.88429 44.7443 6.95313 45.0698 7.09083C45.3942 7.23086 45.5529 7.47358 45.5529 7.81782L45.5284 8.04304L45.2997 8.18891C44.3813 8.24375 43.7232 8.32777 42.9344 8.4433C42.1572 8.55182 41.471 8.74086 40.9016 9.00225C40.2936 9.27181 39.835 9.63239 39.5223 10.0922C39.213 10.5531 39.0625 11.1109 39.0625 11.7609C39.0625 12.3828 39.2819 12.8928 39.7183 13.2849C40.1536 13.6711 40.7195 13.8648 41.4034 13.8648C41.8339 13.8602 42.1689 13.8322 42.4081 13.7703L43.1817 13.5066L43.8446 13.1425L44.4444 12.7387L44.4549 12.7516L44.4 13.0106L44.3942 13.0153L44.3965 13.02C44.3242 13.3327 44.5144 13.5918 44.8224 13.6198L44.8248 13.6256H44.8528C45.0547 13.6256 45.7525 13.6256 46.0851 13.6256H46.3114L46.3359 13.6174C46.6522 13.5789 46.9509 13.3222 47.0174 13.013L48.189 7.96369L48.2509 7.54943L48.2847 7.16201C48.2859 6.44785 47.9801 5.91924 47.3698 5.57966ZM44.7921 11.2649L44.5319 11.5975L43.9076 11.9207C43.6112 12.0398 43.3288 12.1016 43.0732 12.1016C42.666 12.1016 42.3649 12.0433 42.1619 11.9266L41.8491 11.3279C41.8491 11.0012 41.925 10.7456 42.0778 10.5438C42.233 10.3536 42.4699 10.1972 42.764 10.0828C43.0511 9.9848 43.4058 9.90545 43.8189 9.84594C44.183 9.80043 44.9041 9.71524 44.9975 9.71408L45.1107 9.90895C45.0943 10.0198 44.8878 10.8752 44.7921 11.2649Z" fill="#858FA4"/>
<path d="M39.6394 4.20749C39.4387 3.81891 39.1376 3.50501 38.7572 3.25995C38.3674 3.01723 37.9053 2.84686 37.365 2.74884C36.8341 2.65432 36.2005 2.60297 35.4805 2.60181L32.1302 2.60414C31.7813 2.60997 31.4464 2.8807 31.3659 3.21328L29.1126 13.0224C29.0309 13.355 29.2549 13.6304 29.5957 13.6304L31.2002 13.6281C31.5409 13.6304 31.8898 13.3574 31.9704 13.0213L32.513 10.6396C32.5923 10.3082 32.9366 10.0293 33.2831 10.0316H33.7417C35.7033 10.0316 37.2239 9.62786 38.3184 8.82852C39.4002 8.01984 39.9475 6.96144 39.9475 5.64631C39.9416 5.07335 39.8424 4.58908 39.6394 4.20749ZM36.1841 7.41537C35.701 7.76312 35.0265 7.94049 34.163 7.94049H33.7639C33.4197 7.94399 33.1968 7.66393 33.2738 7.33019L33.7592 5.25189C33.8304 4.91932 34.1782 4.64042 34.5248 4.64393L35.044 4.64042C35.6602 4.64393 36.1223 4.74545 36.4373 4.95083C36.7512 5.1562 36.8994 5.47828 36.9029 5.90537C36.9064 6.55651 36.6649 7.05829 36.1841 7.41537Z" fill="#858FA4"/>
<path d="M53.3779 3.2914C53.4514 2.95649 53.2414 2.6846 52.8971 2.68927H51.4618C51.1677 2.68927 50.9028 2.90748 50.7733 3.17588L50.694 3.29957L50.6216 3.61697L48.6157 12.7353L48.5503 13.0154L48.5527 13.0224C48.4861 13.3223 48.6705 13.5487 48.9553 13.5918L48.9798 13.6257H50.4699C50.7617 13.6257 51.0359 13.404 51.1607 13.1309L51.2378 13.0142L53.3826 3.29257L53.3779 3.2914Z" fill="#858FA4"/>
<path d="M29.1564 5.18421C28.7771 5.18888 27.2356 5.18421 27.2356 5.18421C26.8902 5.18421 26.4468 5.46311 26.2274 5.79568C26.2274 5.79568 23.9332 9.73289 23.7104 10.1285L23.4443 10.125L22.7301 5.82252C22.6508 5.48411 22.2972 5.19472 21.8573 5.19472L20.422 5.19705C20.0766 5.19705 19.8642 5.47244 19.9424 5.80852C19.9424 5.80852 21.0323 12.0107 21.2505 13.4705C21.352 14.2757 21.2376 14.4193 21.2376 14.4193L19.8187 16.8908C19.6086 17.2269 19.7218 17.5011 20.0661 17.5011L21.7254 17.4988C22.0708 17.4988 22.5248 17.2269 22.7301 16.8896L29.1132 6.09325C29.1132 6.09442 29.727 5.17138 29.1564 5.18421Z" fill="#858FA4"/>
</svg>
