<svg width="40" height="41" viewBox="0 0 40 41" fill="none" xmlns="http://www.w3.org/2000/svg">
<path d="M16.0163 14.1758L13.9834 26.1054H17.2346L19.2692 14.1758H16.0163Z" fill="#858FA4"/>
<path d="M11.2573 14.189L8.07291 22.3247L7.7334 21.0963C7.1054 19.6161 5.32256 17.4904 3.22949 16.1508L6.14123 26.0994L9.58146 26.0935L14.7017 14.1865L11.2573 14.189Z" fill="#858FA4"/>
<path d="M6.49914 15.0429C6.31016 14.3162 5.76243 14.0997 5.08258 14.0737H0.0418113L0 14.3112C3.92273 15.2628 6.51838 17.5558 7.59543 20.3128L6.49914 15.0429Z" fill="#858FA4"/>
<path d="M25.859 16.4627C26.9227 16.4459 27.6937 16.6784 28.2924 16.9192L28.5859 17.0572L29.0258 14.4716C28.3819 14.2299 27.3726 13.9707 26.1132 13.9707C22.9004 13.9707 20.6359 15.5888 20.6184 17.9077C20.5975 19.6211 22.2314 20.5777 23.4657 21.1489C24.7326 21.7342 25.1574 22.1063 25.1515 22.629C25.1415 23.4276 24.1414 23.7938 23.2073 23.7938C21.9053 23.7938 21.2138 23.6141 20.1459 23.1692L19.7269 22.9785L19.2695 25.6486C20.0305 25.9822 21.4345 26.2691 22.8921 26.2841C26.3097 26.2841 28.5307 24.6853 28.5541 22.2075C28.5684 20.852 27.7012 19.8176 25.8222 18.9688C24.6849 18.4152 23.9892 18.0473 23.9959 17.4887C23.9959 16.9928 24.5863 16.4627 25.859 16.4627Z" fill="#858FA4"/>
<path d="M37.3691 14.189H34.8571C34.0769 14.189 33.4966 14.4014 33.1537 15.1791L28.3262 26.1119H31.7405C31.7405 26.1119 32.2974 24.6418 32.4237 24.3198C32.7975 24.3198 36.1148 24.3248 36.5872 24.3248C36.6842 24.7413 36.9836 26.1119 36.9836 26.1119H39.9999L37.3691 14.189ZM33.3594 21.8781C33.627 21.1932 34.6547 18.544 34.6547 18.544C34.6372 18.5766 34.9198 17.8541 35.0879 17.4051L35.307 18.4336C35.307 18.4336 35.93 21.2818 36.0604 21.8781H33.3594Z" fill="#858FA4"/>
</svg>
